<?xml version="1.0" standalone="no"?>
<!DOCTYPE svg PUBLIC "-//W3C//DTD SVG 20010904//EN"
 "http://www.w3.org/TR/2001/REC-SVG-20010904/DTD/svg10.dtd">
<svg version="1.0" xmlns="http://www.w3.org/2000/svg"
 width="1120.000000pt" height="1120.000000pt" viewBox="0 0 1120.000000 1120.000000"
 preserveAspectRatio="xMidYMid meet">

<g transform="translate(0.000000,1120.000000) scale(0.100000,-0.100000)"
fill="#000000" stroke="none">
<path d="M3934 8554 c-126 -114 -270 -243 -319 -288 -137 -122 -563 -507 -700
-631 -67 -60 -200 -181 -296 -268 l-175 -158 -95 -172 c-52 -94 -110 -200
-130 -236 -85 -158 -112 -207 -119 -216 -4 -5 -30 -54 -59 -107 -50 -95 -74
-140 -131 -243 -15 -27 -41 -75 -57 -105 -54 -99 -96 -175 -108 -195 -7 -11
-30 -54 -52 -95 -22 -41 -102 -187 -177 -323 -75 -136 -136 -250 -136 -253 0
-3 73 59 162 138 89 79 203 179 253 223 50 44 228 201 395 349 168 148 336
296 375 330 38 33 90 79 115 102 25 23 88 79 141 125 53 46 148 130 212 187
63 56 120 102 125 102 6 0 17 -17 25 -37 8 -21 34 -78 57 -128 23 -49 51 -110
62 -135 129 -285 136 -298 144 -275 2 6 57 82 121 170 196 270 429 589 596
820 88 121 177 243 197 270 20 28 53 74 74 103 21 28 41 52 45 52 4 0 18 -19
31 -42 13 -24 76 -133 140 -243 131 -226 321 -553 402 -695 30 -52 59 -95 65
-95 10 0 87 89 386 448 49 59 91 107 93 107 2 0 30 -19 61 -43 32 -24 139
-104 238 -177 99 -73 245 -182 325 -241 575 -426 674 -498 677 -495 2 2 -49
80 -114 174 -65 95 -217 316 -338 492 -121 176 -265 386 -320 465 -55 80 -158
230 -230 335 -71 105 -168 246 -215 313 -47 67 -101 146 -120 174 -19 29 -39
52 -45 52 -5 0 -31 -28 -57 -62 -26 -34 -79 -102 -118 -152 -39 -49 -105 -134
-147 -188 -60 -77 -79 -95 -88 -85 -6 7 -106 121 -221 253 -114 132 -285 328
-379 435 -93 107 -204 235 -245 283 -41 48 -80 87 -86 87 -7 0 -115 -93 -240
-206z"/>
<path d="M6789 7749 c-134 -155 -266 -309 -293 -341 l-49 -59 90 -132 c162
-237 257 -375 312 -454 30 -43 130 -190 224 -326 99 -145 173 -245 179 -239 5
5 41 62 81 128 40 65 100 163 133 216 32 54 64 96 70 94 9 -4 1832 -1363 2027
-1513 33 -24 61 -42 63 -40 3 3 -28 60 -69 128 -41 68 -139 234 -219 369 -166
281 -441 746 -669 1130 -143 241 -420 709 -485 819 l-26 45 -71 -75 c-40 -41
-121 -127 -180 -192 -60 -64 -112 -117 -116 -117 -7 0 -153 165 -611 688 -73
83 -136 152 -140 152 -3 0 -116 -127 -251 -281z"/>
<path d="M9012 4906 c-89 -29 -145 -85 -194 -191 -20 -44 -22 -66 -23 -185 0
-150 8 -186 76 -321 135 -271 426 -503 734 -586 138 -36 310 -38 399 -3 76 29
147 95 177 163 33 74 33 221 0 327 -105 339 -463 671 -841 781 -88 26 -270 34
-328 15z m387 -293 c199 -54 424 -266 477 -448 30 -105 -1 -212 -76 -258 -51
-32 -179 -30 -272 5 -141 53 -279 162 -362 286 -119 180 -93 381 55 427 48 15
94 12 178 -12z"/>
<path d="M1205 4798 c-27 -51 -68 -127 -91 -168 -22 -41 -52 -95 -66 -120 -14
-25 -43 -76 -63 -115 -21 -38 -123 -225 -227 -414 -103 -189 -188 -348 -188
-353 0 -4 185 -7 411 -6 354 3 413 5 420 18 11 18 81 171 102 223 l16 37 -250
0 c-152 0 -249 4 -249 10 0 15 101 204 114 212 6 4 107 8 224 8 l213 0 54 115
c30 64 57 126 60 138 l6 22 -197 -3 c-109 -2 -203 -1 -210 2 -8 3 3 33 33 93
25 48 50 94 55 101 8 9 67 12 233 12 166 0 225 3 232 13 5 6 24 46 43 87 18
41 43 99 56 128 l24 52 -353 0 -352 0 -50 -92z"/>
<path d="M2426 4838 c-16 -46 -150 -393 -266 -693 -105 -269 -200 -516 -200
-520 0 -3 68 -4 152 -3 l152 3 21 55 c12 30 45 123 73 205 124 356 140 400
147 398 4 -1 34 -73 65 -160 61 -170 109 -292 164 -418 l35 -80 118 0 117 0
22 80 c13 44 55 202 94 350 70 264 130 487 190 711 17 61 30 114 30 118 0 4
-59 5 -131 4 l-132 -3 -19 -65 c-50 -165 -81 -269 -98 -320 -9 -30 -32 -106
-50 -168 -20 -68 -37 -109 -42 -104 -5 5 -46 119 -91 253 -81 241 -94 283
-116 367 l-12 42 -102 0 -102 0 -19 -52z"/>
<path d="M3784 4853 c-3 -21 -15 -77 -25 -125 -10 -48 -19 -95 -19 -103 0 -13
23 -15 150 -15 l150 0 -5 -22 c-10 -47 -155 -932 -155 -950 0 -17 11 -18 150
-18 170 0 152 -10 165 95 5 45 20 158 70 530 8 61 22 167 31 237 l17 127 151
3 151 3 6 50 c3 28 9 89 13 138 l7 87 -425 0 -425 0 -7 -37z"/>
<path d="M5235 4688 c-36 -112 -77 -232 -90 -268 -13 -36 -46 -128 -74 -205
-27 -77 -88 -240 -135 -361 -47 -122 -86 -225 -86 -228 0 -4 75 -5 168 -4
l167 3 32 95 c106 320 169 521 238 758 10 34 21 59 25 55 4 -4 30 -80 59 -168
59 -179 210 -600 245 -685 l23 -55 167 -3 c91 -1 166 0 166 3 0 3 -9 25 -19
48 -95 209 -273 653 -396 987 l-84 225 -169 3 -170 2 -67 -202z"/>
<path d="M6464 4867 c3 -12 30 -189 60 -392 30 -204 60 -397 65 -430 6 -33 20
-125 31 -205 12 -80 25 -161 29 -180 l7 -35 387 -3 c348 -2 387 -1 387 14 0
17 -46 223 -56 248 -5 13 -37 16 -231 18 -189 3 -227 5 -233 18 -4 8 -15 56
-24 105 -21 118 -132 722 -148 803 l-12 62 -134 0 -134 0 6 -23z"/>
<path d="M7394 4873 c3 -10 14 -52 25 -93 11 -41 26 -95 34 -120 l13 -45 151
-3 151 -3 45 -142 c25 -78 66 -209 92 -292 25 -82 50 -161 55 -175 5 -14 32
-99 60 -190 28 -91 53 -171 55 -177 6 -18 305 -19 305 -1 0 7 -6 30 -14 53 -8
22 -28 78 -45 125 -77 215 -260 748 -266 772 l-7 27 143 3 c169 3 159 -14 91
161 l-46 117 -424 0 c-399 0 -423 -1 -418 -17z"/>
<path d="M4933 3227 c-51 -19 -78 -51 -78 -96 0 -62 36 -88 161 -120 23 -6 53
-21 68 -32 23 -18 27 -28 24 -62 -4 -57 -37 -79 -115 -79 -71 0 -99 15 -114
59 -6 18 -17 33 -25 33 -18 0 -18 -12 0 -55 20 -46 60 -65 143 -65 101 0 142
33 143 111 0 63 -24 92 -97 113 -32 10 -72 22 -89 27 -96 29 -86 126 14 145
57 11 115 -14 127 -53 11 -39 35 -44 35 -8 0 34 -38 71 -86 84 -48 13 -70 13
-111 -2z"/>
<path d="M9165 3228 c-77 -27 -105 -84 -105 -212 1 -106 17 -148 70 -184 30
-20 44 -23 102 -20 58 3 72 8 97 32 44 42 54 83 49 200 -4 123 -21 155 -95
180 -53 18 -75 19 -118 4z m123 -38 c45 -28 62 -73 62 -170 0 -133 -35 -182
-129 -182 -92 0 -131 55 -131 185 1 92 25 152 72 172 46 20 88 18 126 -5z"/>
<path d="M10050 3229 c-49 -14 -80 -51 -80 -98 0 -51 33 -83 107 -105 89 -27
110 -36 129 -57 26 -28 22 -76 -8 -106 -22 -21 -35 -25 -87 -26 -72 0 -114 23
-119 66 -5 37 -32 35 -32 -1 0 -32 30 -69 67 -83 44 -16 145 -11 179 10 37 22
59 78 49 119 -11 47 -45 71 -133 98 -91 28 -122 50 -122 89 0 86 173 101 209
18 18 -42 46 -46 36 -5 -9 38 -39 67 -84 81 -44 13 -63 13 -111 0z"/>
<path d="M5690 3220 c0 -5 33 -10 73 -12 l72 -3 3 -197 c2 -167 5 -198 17
-198 13 0 15 30 15 200 l0 200 70 0 c40 0 70 4 70 10 0 6 -60 10 -160 10 -95
0 -160 -4 -160 -10z"/>
<path d="M6572 3063 c3 -155 5 -170 25 -199 30 -42 71 -57 139 -52 45 4 61 10
85 35 40 40 48 82 49 246 0 130 -1 137 -20 137 -19 0 -20 -7 -20 -164 0 -149
-2 -166 -20 -189 -41 -52 -129 -55 -177 -5 l-28 29 -4 165 c-2 137 -6 164 -18
164 -13 0 -14 -25 -11 -167z"/>
<path d="M7480 3020 l0 -212 98 4 c109 3 147 21 179 81 26 49 24 211 -2 256
-37 63 -65 76 -176 79 l-99 4 0 -212z m195 169 c46 -23 65 -72 65 -167 0 -145
-32 -182 -160 -182 l-70 0 0 178 c0 98 3 182 8 186 11 12 125 1 157 -15z"/>
<path d="M8350 3221 c0 -5 10 -11 23 -13 22 -3 22 -5 25 -185 2 -180 2 -182
-19 -185 -13 -2 -24 -9 -27 -15 -3 -10 14 -13 62 -13 51 0 66 3 66 14 0 8 -9
16 -21 18 -19 3 -20 10 -22 181 -2 177 -2 178 21 184 44 11 21 23 -43 23 -36
0 -65 -4 -65 -9z"/>
</g>
</svg>
