<?xml version="1.0" standalone="no"?>
<!DOCTYPE svg PUBLIC "-//W3C//DTD SVG 20010904//EN"
 "http://www.w3.org/TR/2001/REC-SVG-20010904/DTD/svg10.dtd">
<svg version="1.0" xmlns="http://www.w3.org/2000/svg"
 width="300.000000pt" height="300.000000pt" viewBox="0 0 300.000000 300.000000"
 preserveAspectRatio="xMidYMid meet">

<g transform="translate(0.000000,300.000000) scale(0.100000,-0.100000)"
fill="#000000" stroke="none">
<path d="M510 2465 l0 -175 -84 0 -83 0 -8 -512 c-4 -282 -6 -678 -4 -880 l4
-368 168 0 167 0 0 -90 0 -90 915 0 915 0 0 175 0 175 -80 0 -80 0 0 90 0 90
-85 0 -85 0 0 90 0 90 -86 0 -85 0 3 85 3 85 -85 0 -85 0 0 87 0 88 -82 3 -83
3 0 174 0 175 80 0 80 0 0 90 0 90 88 0 87 0 -3 85 -3 84 83 3 83 3 3 88 3 87
-171 0 -170 0 0 -85 0 -85 -80 0 -80 0 0 -90 0 -90 -85 0 -85 0 0 -90 0 -90
-80 0 -80 0 0 265 0 265 -250 0 -250 0 0 -90 0 -90 80 0 80 0 0 -705 0 -705
250 0 250 0 0 90 0 90 -80 0 -80 0 0 265 0 265 80 0 80 0 0 -90 0 -90 85 0 85
0 0 -90 0 -90 80 0 80 0 0 -85 0 -85 85 0 85 0 0 -90 0 -90 170 0 170 0 0 -85
0 -85 -835 0 -835 0 0 90 0 90 -80 0 -80 0 -2 615 c-2 338 -3 693 -3 788 l0
172 83 3 82 3 0 89 0 90 835 0 835 0 0 -90 0 -90 80 0 80 0 0 -789 0 -790 85
-3 85 -3 0 878 0 877 -85 0 -85 0 0 90 0 90 -995 0 -995 0 0 -175z"/>
</g>
</svg>
