<?xml version="1.0" standalone="no"?>
<!DOCTYPE svg PUBLIC "-//W3C//DTD SVG 20010904//EN"
 "http://www.w3.org/TR/2001/REC-SVG-20010904/DTD/svg10.dtd">
<svg version="1.0" xmlns="http://www.w3.org/2000/svg"
 width="660.000000pt" height="220.000000pt" viewBox="0 0 660.000000 220.000000"
 preserveAspectRatio="xMidYMid meet">

<g transform="translate(0.000000,220.000000) scale(0.100000,-0.100000)"
fill="#000000" stroke="none">
<path d="M800 1800 l0 -100 -50 0 -50 0 0 -500 0 -500 100 0 100 0 0 -50 0
-50 550 0 550 0 0 100 0 100 50 0 50 0 0 500 0 500 -50 0 -50 0 0 50 0 50
-600 0 -600 0 0 -100z m1100 -50 l0 -50 50 0 50 0 0 -450 0 -450 -50 0 -50 0
0 -50 0 -50 -500 0 -500 0 0 50 0 50 -50 0 -50 0 0 450 0 450 50 0 50 0 0 50
0 50 500 0 500 0 0 -50z"/>
<path d="M1000 1650 l0 -50 50 0 50 0 0 -400 0 -400 150 0 150 0 0 50 0 50
-50 0 -50 0 0 150 0 150 50 0 50 0 0 -50 0 -50 50 0 50 0 0 -50 0 -50 50 0 50
0 0 -50 0 -50 50 0 50 0 0 -50 0 -50 100 0 100 0 0 50 0 50 -50 0 -50 0 0 50
0 50 -50 0 -50 0 0 50 0 50 -50 0 -50 0 0 50 0 50 -50 0 -50 0 0 100 0 100 50
0 50 0 0 50 0 50 50 0 50 0 0 50 0 50 50 0 50 0 0 50 0 50 -100 0 -100 0 0
-50 0 -50 -50 0 -50 0 0 -50 0 -50 -50 0 -50 0 0 -50 0 -50 -50 0 -50 0 0 150
0 150 -150 0 -150 0 0 -50z"/>
<path d="M3200 1250 l0 -350 50 0 50 0 0 350 0 350 -50 0 -50 0 0 -350z"/>
<path d="M4600 1350 l0 -50 150 0 150 0 0 -50 0 -50 -150 0 -150 0 0 -150 0
-150 200 0 200 0 0 250 0 250 -200 0 -200 0 0 -50z m300 -300 l0 -50 -100 0
-100 0 0 50 0 50 100 0 100 0 0 -50z"/>
<path d="M2200 950 l0 -250 200 0 200 0 0 50 0 50 -150 0 -150 0 0 50 0 50
150 0 150 0 0 150 0 150 -200 0 -200 0 0 -250z m300 100 l0 -50 -100 0 -100 0
0 50 0 50 100 0 100 0 0 -50z"/>
<path d="M2700 900 l0 -300 50 0 50 0 0 150 0 150 150 0 150 0 0 150 0 150
-200 0 -200 0 0 -300z m300 150 l0 -50 -100 0 -100 0 0 50 0 50 100 0 100 0 0
-50z"/>
<path d="M3400 950 l0 -250 200 0 200 0 0 50 0 50 -150 0 -150 0 0 50 0 50
150 0 150 0 0 150 0 150 -200 0 -200 0 0 -250z m300 100 l0 -50 -100 0 -100 0
0 50 0 50 100 0 100 0 0 -50z"/>
<path d="M3900 1050 l0 -150 50 0 50 0 0 100 0 100 150 0 150 0 0 50 0 50
-200 0 -200 0 0 -150z"/>
<path d="M4400 1050 l0 -150 50 0 50 0 0 150 0 150 -50 0 -50 0 0 -150z"/>
<path d="M5100 1050 l0 -150 50 0 50 0 0 100 0 100 100 0 100 0 0 -100 0 -100
50 0 50 0 0 150 0 150 -200 0 -200 0 0 -150z"/>
<path d="M5600 1050 l0 -150 150 0 150 0 0 -50 0 -50 -150 0 -150 0 0 -50 0
-50 200 0 200 0 0 150 0 150 -150 0 -150 0 0 50 0 50 150 0 150 0 0 50 0 50
-200 0 -200 0 0 -150z"/>
</g>
</svg>
