<?xml version="1.0" standalone="no"?>
<!DOCTYPE svg PUBLIC "-//W3C//DTD SVG 20010904//EN"
 "http://www.w3.org/TR/2001/REC-SVG-20010904/DTD/svg10.dtd">
<svg version="1.0" xmlns="http://www.w3.org/2000/svg"
 width="512.000000pt" height="512.000000pt" viewBox="0 0 512.000000 512.000000"
 preserveAspectRatio="xMidYMid meet">

<g transform="translate(0.000000,512.000000) scale(0.100000,-0.100000)"
fill="#000000" stroke="none">
<path d="M0 2560 l0 -2560 2560 0 2560 0 0 2560 0 2560 -2560 0 -2560 0 0
-2560z m989 768 c12 -46 30 -117 41 -158 11 -41 23 -93 26 -115 4 -22 11 -48
16 -57 5 -10 13 -44 19 -75 6 -32 19 -86 29 -120 10 -33 24 -90 30 -125 7 -34
16 -68 20 -73 5 -6 13 -39 19 -73 5 -34 12 -66 16 -71 5 -9 15 -52 76 -311 11
-47 24 -89 28 -93 5 -5 12 9 15 30 4 21 14 58 22 83 8 25 28 99 45 165 30 119
51 195 84 310 10 33 26 92 35 130 26 101 65 248 89 335 12 41 30 111 41 155
11 44 25 95 31 113 l11 32 156 -2 157 -3 12 -45 c6 -25 25 -97 42 -160 17 -63
38 -142 46 -175 9 -33 22 -82 30 -110 31 -106 75 -276 75 -290 0 -8 8 -41 19
-72 10 -32 24 -80 31 -108 77 -300 99 -380 106 -382 5 -2 26 70 47 159 22 90
45 186 52 213 41 154 56 215 65 263 5 30 12 58 16 63 3 5 17 58 31 117 14 59
34 143 45 187 10 44 26 109 34 145 8 36 24 95 35 133 l20 67 139 0 c110 0 140
-3 140 -13 0 -8 -13 -60 -29 -118 -16 -57 -33 -122 -36 -144 -4 -22 -11 -44
-15 -50 -5 -5 -11 -28 -15 -50 -3 -22 -13 -58 -20 -80 -8 -22 -23 -76 -35
-120 -20 -83 -39 -152 -85 -315 -14 -52 -32 -122 -40 -155 -8 -33 -23 -89 -34
-124 -12 -35 -21 -69 -21 -75 0 -6 -9 -40 -19 -76 -11 -36 -32 -110 -46 -165
-14 -55 -36 -134 -49 -175 l-23 -75 -139 -3 c-76 -1 -148 0 -160 2 -17 5 -26
24 -48 99 -14 51 -26 101 -26 111 0 10 -6 32 -14 49 -8 18 -21 61 -30 97 -15
61 -30 118 -92 345 -13 50 -30 115 -38 145 -7 30 -18 71 -24 90 -14 41 -48
169 -68 255 -8 33 -20 78 -28 99 l-13 39 -17 -51 c-10 -28 -26 -84 -36 -124
-43 -167 -51 -195 -65 -243 -15 -53 -32 -117 -65 -250 -11 -44 -27 -100 -34
-125 -26 -82 -45 -153 -92 -335 -26 -99 -51 -186 -57 -193 -7 -9 -49 -12 -169
-10 l-160 3 -18 55 c-17 52 -34 117 -64 240 -7 30 -20 78 -28 105 -25 82 -60
206 -74 265 -13 57 -82 313 -128 480 -36 129 -74 272 -92 345 -8 33 -23 89
-34 125 -10 36 -21 77 -24 93 l-6 27 149 0 149 0 21 -82z m3263 66 c25 -8 56
-26 69 -40 20 -22 23 -35 23 -97 -1 -61 -5 -81 -29 -122 -127 -223 -408 -405
-775 -504 -41 -11 -101 -23 -133 -27 -57 -7 -58 -7 -105 -73 -242 -337 -411
-703 -362 -781 25 -40 200 4 375 94 119 61 132 69 259 154 236 159 472 364
676 589 121 133 187 209 218 249 39 49 40 50 68 30 17 -13 18 -17 4 -40 -29
-47 -265 -309 -416 -460 -119 -119 -178 -171 -314 -279 -267 -211 -536 -358
-748 -408 -93 -22 -129 -17 -180 26 -78 65 -107 257 -68 440 28 132 31 142
107 300 154 319 499 682 804 845 195 103 407 145 527 104z"/>
<path d="M4034 3309 c-142 -76 -276 -205 -500 -481 -114 -141 -129 -164 -98
-155 10 4 42 11 69 17 121 26 310 105 410 172 68 45 133 110 187 188 51 73 98
181 98 227 0 68 -72 82 -166 32z"/>
</g>
</svg>
